<svg width="40" height="40" viewBox="0 0 40 40" fill="none" xmlns="http://www.w3.org/2000/svg">
<g clip-path="url(#clip0_8_813)">
<path opacity="0.993" d="M20.0006 39.9729C31.0315 39.9729 39.9739 31.0306 39.9739 19.9996C39.9739 8.9687 31.0315 0.0263672 20.0006 0.0263672C8.96968 0.0263672 0.0273438 8.9687 0.0273438 19.9996C0.0273438 31.0306 8.96968 39.9729 20.0006 39.9729Z" fill="#BDB092"/>
<path d="M13.6105 32.1269C14.3005 32.1632 15.2808 32.1632 16.2973 32.0543C19.4924 31.8365 22.3245 30.7472 24.394 28.823C26.8628 26.4993 28.4967 22.9047 28.4967 17.858C28.4967 12.1214 25.5558 7.80078 20.0734 7.80078C15.0266 7.80078 11.541 11.722 11.541 16.2241C11.541 20.5812 14.5909 23.522 18.6937 23.522C20.9448 23.522 22.6512 22.7595 23.8494 21.4524H23.922C23.4863 23.7035 22.4333 25.4826 20.8721 26.717C19.6014 27.77 17.8586 28.3873 16.0796 28.5324C15.0266 28.6412 14.3368 28.6775 13.6105 28.605V32.1269ZM19.8555 11.1411C22.7239 11.1411 23.9583 13.8642 23.922 17.0593C23.922 17.6764 23.8131 18.0395 23.6679 18.3299C22.978 19.4192 21.6709 20.2906 19.8555 20.2906C17.3867 20.2906 15.9706 18.4027 15.9706 15.9699C15.9706 13.1379 17.5682 11.1411 19.8192 11.1411H19.8555Z" fill="white"/>
</g>
<defs>
<clipPath id="clip0_8_813">
<rect width="40" height="40" fill="white"/>
</clipPath>
</defs>
</svg>
