<svg width="40" height="40" viewBox="0 0 40 40" fill="none" xmlns="http://www.w3.org/2000/svg">
<g clip-path="url(#clip0_8_850)">
<path opacity="0.993" d="M40 20.0001C40 25.3044 37.8928 30.3914 34.1421 34.1421C30.3914 37.8928 25.3044 40 20.0001 40C14.6958 40 9.60868 37.8929 5.85794 34.1422C2.1072 30.3915 4.00956e-05 25.3044 0 20.0001C0 14.6957 2.10714 9.60863 5.85789 5.85789C9.60863 2.10714 14.6957 0 20.0001 0C25.3044 4.00956e-05 30.3915 2.1072 34.1422 5.85794C37.8929 9.60868 40 14.6958 40 20.0001Z" fill="#B7C450"/>
<path d="M23.3765 27.5963C23.5185 27.5996 25.115 27.5848 25.8029 27.5963C27.253 27.6204 28.3932 26.6295 29.0905 25.2383C29.5384 24.3444 34.6814 12.3067 34.6814 12.3067H31.8654C30.7739 12.3067 29.3599 13.3859 28.9331 14.3502C27.234 18.1907 23.9506 25.9218 23.9506 25.9218C23.9506 25.9218 23.3503 26.9742 22.9402 27.1109C22.6726 27.2 22.0642 27.1179 22.0642 27.1179C22.3427 27.5348 22.9332 27.5843 23.3765 27.5963ZM16.4518 12.7565C16.3201 12.4482 15.8872 12.3266 15.5624 12.3266H12.7496C11.4366 12.3266 9.91492 13.7699 9.56961 14.6513C8.45427 17.4971 7.20351 20.3213 5.93512 23.0702C4.36394 26.4753 6.03927 27.6875 8.31293 27.6954C11.1725 27.7053 14.032 27.6954 16.8914 27.6954C18.9654 27.6954 19.7572 26.3095 20.4873 24.6748C21.9895 21.3108 24.4327 15.4381 24.9144 14.3161C25.3961 13.194 26.2203 12.5323 26.9716 12.8054C26.6936 12.3488 26.0355 12.2998 25.4624 12.2998H23.4996C21.3919 12.2998 20.1123 13.9696 19.5206 15.5984C18.929 17.2273 17.468 20.5846 16.2419 23.096C15.9961 23.5994 15.4553 24.5926 14.6151 24.5926H11.1113C10.5297 24.5926 10.4888 23.683 10.7723 23.0368C12.1116 19.9856 13.4383 16.9385 14.7644 13.8057C14.893 13.5019 15.6246 12.6095 16.4518 12.7565Z" fill="white"/>
</g>
<defs>
<clipPath id="clip0_8_850">
<rect width="40" height="40" fill="white"/>
</clipPath>
</defs>
</svg>
