<svg width="40" height="40" viewBox="0 0 40 40" fill="none" xmlns="http://www.w3.org/2000/svg">
<path opacity="0.993" d="M19.9733 39.9465C31.0042 39.9465 39.9465 31.0042 39.9465 19.9733C39.9465 8.94233 31.0042 0 19.9733 0C8.94233 0 0 8.94233 0 19.9733C0 31.0042 8.94233 39.9465 19.9733 39.9465Z" fill="#00A84D"/>
<path d="M28.196 31.516V27.8489H18.5383V27.7764L20.5715 25.9973C24.7105 22.1849 27.6877 18.8446 27.6877 14.6693C27.6877 10.8207 25.1462 7.5166 19.9179 7.5166C16.9407 7.5166 14.3628 8.56958 12.6564 9.94911L13.9635 13.108C15.1616 12.2003 16.9044 11.1474 19.0102 11.1474C22.0965 11.1474 23.2218 12.999 23.2218 15.1413C23.1856 18.2636 20.5715 21.0957 15.0163 26.2151L12.2207 28.8291V31.5158L28.196 31.516Z" fill="white"/>
</svg>
