<svg width="40" height="40" viewBox="0 0 40 40" fill="none" xmlns="http://www.w3.org/2000/svg">
<g clip-path="url(#clip0_8_799)">
<path opacity="0.993" d="M20.0006 39.9729C31.0315 39.9729 39.9739 31.0306 39.9739 19.9996C39.9739 8.9687 31.0315 0.0263672 20.0006 0.0263672C8.96968 0.0263672 0.0273438 8.9687 0.0273438 19.9996C0.0273438 31.0306 8.96968 39.9729 20.0006 39.9729Z" fill="#77C4A3"/>
<path d="M14.3092 14.1466C14.9541 14.1466 15.5515 14.2082 16.1016 14.3315C16.6611 14.4548 17.1447 14.6303 17.5525 14.8579C17.9508 15.0855 18.2638 15.3652 18.4914 15.6971C18.7284 16.029 18.8469 16.4083 18.8469 16.835C18.8469 17.2714 18.7284 17.6555 18.4914 17.9873C18.2638 18.3192 17.9508 18.599 17.5525 18.8266C17.1447 19.0541 16.6611 19.2248 16.1016 19.3386C15.5515 19.4525 14.9493 19.5094 14.295 19.5094C13.6407 19.5094 13.0385 19.4525 12.4884 19.3386C11.9384 19.2248 11.4643 19.0541 11.0659 18.8266C10.6582 18.599 10.3405 18.3192 10.1129 17.9873C9.89479 17.6555 9.78574 17.2714 9.78574 16.835C9.78574 16.4178 9.89953 16.0432 10.1271 15.7113C10.3643 15.3794 10.6867 15.0949 11.0945 14.8579C11.5023 14.6303 11.9812 14.4548 12.5312 14.3315C13.0812 14.2082 13.6739 14.1466 14.3092 14.1466ZM14.3092 15.4126C13.4842 15.4126 12.8109 15.5359 12.2895 15.7825C11.7678 16.029 11.5069 16.3704 11.5069 16.8066C11.5069 17.2523 11.7677 17.6032 12.2893 17.8593C12.8204 18.1248 13.4938 18.2575 14.3092 18.2575C15.1437 18.2575 15.8171 18.1248 16.3292 17.8593C16.8507 17.5937 17.1115 17.2428 17.1115 16.8066C17.1115 16.3609 16.8555 16.0196 16.3435 15.7825C15.8313 15.5359 15.1532 15.4126 14.3092 15.4126ZM14.3519 7.0627C14.4942 7.0627 14.5938 7.09586 14.6506 7.16217C14.717 7.21912 14.7502 7.3187 14.7502 7.46091C14.589 8.94037 14.0532 10.2491 13.1429 11.3871C12.2325 12.5155 10.8716 13.3784 9.06037 13.9759L8.06454 12.8095C9.45863 12.4207 10.5587 11.8517 11.3648 11.1026C12.1803 10.3438 12.7066 9.45237 12.9436 8.42816H8.81848V7.0627H14.3519ZM17.0831 14.1182V12.3685H14.6648V11.0457H17.0973V9.55204H14.9351V8.22921H17.0831V6.53613H18.6905V14.118L17.0831 14.1182ZM24.6364 13.4496C24.1244 13.4496 23.6598 13.369 23.2425 13.2078C22.8253 13.0465 22.4649 12.8189 22.1614 12.525C21.8674 12.231 21.6398 11.8849 21.4785 11.4866C21.3173 11.0882 21.2367 10.652 21.2367 10.1779C21.2367 9.72268 21.3173 9.29589 21.4785 8.89758C21.6398 8.49937 21.8674 8.15327 22.1614 7.85927C22.4648 7.56527 22.8251 7.33764 23.2424 7.17638C23.6596 7.00575 24.1243 6.92044 24.6364 6.92044C25.139 6.92044 25.599 7.00575 26.0162 7.17638C26.4335 7.33764 26.7939 7.56527 27.0973 7.85927C27.3913 8.15327 27.619 8.49937 27.7802 8.89758C27.9509 9.29589 28.0362 9.72268 28.0362 10.1779C28.0362 10.652 27.9509 11.0882 27.7802 11.4866C27.619 11.8849 27.3913 12.231 27.0973 12.525C26.794 12.819 26.4337 13.0466 26.0164 13.2078C25.5991 13.369 25.1391 13.4496 24.6364 13.4496ZM24.6364 8.27169C24.0675 8.27169 23.6265 8.4519 23.3136 8.81232C23.0101 9.17263 22.8584 9.62784 22.8584 10.1779C22.8584 10.7185 23.0101 11.1784 23.3134 11.5578C23.6265 11.9277 24.0675 12.1126 24.6364 12.1126C25.2055 12.1126 25.6417 11.9277 25.9452 11.5578C26.2581 11.1784 26.4146 10.7185 26.4146 10.1779C26.4146 9.62784 26.2581 9.17263 25.9452 8.81232C25.6417 8.4519 25.2055 8.27169 24.6364 8.27169ZM20.6535 15.2989L24.5227 15.2561C24.7408 15.2561 25.0395 15.2466 25.4188 15.2277C25.8076 15.1993 26.2249 15.1661 26.6706 15.1281C27.1163 15.0902 27.5669 15.0428 28.0221 14.9859C28.4772 14.929 28.8849 14.8673 29.2452 14.8009V16.1237C28.3633 16.323 27.306 16.47 26.0732 16.5649C24.8404 16.6501 23.5222 16.6928 22.1186 16.6928H20.6535V15.2989ZM31.1798 6.55049V19.2818H29.5725V6.55049H31.1798ZM14.4799 28.5706C15.7507 28.6559 16.718 28.9167 17.3818 29.353C18.0551 29.7797 18.3917 30.3297 18.3917 31.003C18.3917 31.7521 17.9887 32.3496 17.1827 32.7954C16.3766 33.2411 15.2055 33.4639 13.6693 33.4639C12.1234 33.4639 10.9474 33.2411 10.1413 32.7954C9.3448 32.3496 8.94653 31.7521 8.94653 31.003C8.94653 30.3297 9.27369 29.7797 9.928 29.353C10.5918 28.9167 11.5496 28.6559 12.8015 28.5706V27.3188H7.80859V25.9816H19.544V27.3188H14.4799V28.5706ZM13.6691 29.7654C12.7682 29.7654 12.0569 29.8697 11.5354 30.0784C11.0138 30.287 10.753 30.5905 10.753 30.9888C10.753 31.4155 11.0138 31.7237 11.5354 31.9134C12.0569 32.1125 12.7682 32.2121 13.6691 32.2121C14.5606 32.2121 15.2671 32.1125 15.7887 31.9134C16.3197 31.7237 16.5853 31.4155 16.5853 30.9888C16.5853 30.5905 16.3197 30.287 15.7885 30.0784C15.2671 29.8697 14.5606 29.7654 13.6691 29.7654ZM9.15985 20.8181H18.1784V22.1695H14.608C14.7028 22.5014 14.8925 22.7811 15.177 23.0087C15.4614 23.2362 15.8075 23.4259 16.2153 23.5777C16.6136 23.739 17.0499 23.867 17.5241 23.9617C18.0077 24.0566 18.4913 24.1325 18.975 24.1894L18.0077 25.3558C17.5905 25.2893 17.1637 25.2087 16.7275 25.1139C16.3008 25.0191 15.893 24.8959 15.5042 24.7441C15.1059 24.6019 14.7455 24.4312 14.4231 24.232C14.1005 24.0234 13.8398 23.7816 13.6407 23.5065C13.4131 23.7816 13.1381 24.0187 12.8157 24.2178C12.5028 24.417 12.1519 24.5924 11.763 24.7441C11.3837 24.8959 10.9806 25.0239 10.5539 25.1281C10.1366 25.2229 9.71937 25.2988 9.30211 25.3558L8.32064 24.2036C8.88959 24.1088 9.42064 24.0045 9.91379 23.8907C10.4164 23.7768 10.8622 23.644 11.251 23.4923C11.6303 23.331 11.9479 23.1461 12.204 22.9375C12.46 22.7194 12.6307 22.4634 12.7161 22.1695H9.15985V20.8181ZM23.8826 27.0485C23.3705 27.0485 22.9058 26.9679 22.4886 26.8066C22.0713 26.6454 21.711 26.4225 21.4075 26.1381C21.1135 25.8536 20.8859 25.517 20.7246 25.1282C20.5633 24.7299 20.4827 24.2984 20.4827 23.8337C20.4827 23.3785 20.5633 22.9565 20.7246 22.5677C20.8859 22.1788 21.1135 21.8422 21.4075 21.5578C21.7109 21.2733 22.0712 21.0504 22.4884 20.8891C22.9057 20.7185 23.3704 20.6332 23.8826 20.6332C24.3851 20.6332 24.845 20.7185 25.2623 20.8891C25.6796 21.0504 26.0399 21.2733 26.3434 21.5578C26.6374 21.8422 26.865 22.1788 27.0263 22.5677C27.1969 22.9565 27.2822 23.3785 27.2822 23.8337C27.2822 24.2983 27.1969 24.7298 27.0263 25.1282C26.865 25.517 26.6374 25.8536 26.3434 26.1381C26.04 26.4226 25.6797 26.6455 25.2625 26.8066C24.8452 26.9679 24.3853 27.0485 23.8826 27.0485ZM23.8826 21.9986C23.3136 21.9986 22.8726 22.1741 22.5598 22.525C22.2562 22.8759 22.1044 23.3168 22.1044 23.8479C22.1044 24.3695 22.2562 24.8104 22.5596 25.1707C22.8726 25.5217 23.3135 25.6971 23.8825 25.6971C24.4515 25.6971 24.8878 25.5217 25.1912 25.1709C25.5042 24.8104 25.6607 24.3695 25.6607 23.848C25.6607 23.3169 25.5042 22.8759 25.1912 22.525C24.8878 22.1741 24.4516 21.9986 23.8826 21.9986ZM26.4288 28.087C27.0737 28.087 27.6711 28.1486 28.2211 28.2719C28.7712 28.3952 29.2501 28.5706 29.6579 28.7982C30.0561 29.0257 30.369 29.3055 30.5967 29.6374C30.8243 29.9694 30.9381 30.3487 30.9381 30.7754C30.9381 31.2117 30.8243 31.5957 30.5967 31.9276C30.369 32.2595 30.0561 32.5393 29.6579 32.767C29.2501 32.9945 28.7712 33.1652 28.2211 33.279C27.6711 33.3928 27.0689 33.4497 26.4145 33.4497C25.7601 33.4497 25.158 33.3927 24.608 33.2789C24.0675 33.1652 23.5981 32.9945 23.1997 32.767C22.8014 32.5393 22.4885 32.2595 22.2609 31.9276C22.0428 31.5957 21.9337 31.2117 21.9337 30.7754C21.9337 30.3582 22.0475 29.9836 22.2751 29.6517C22.5027 29.3197 22.8204 29.0352 23.2282 28.7982C23.6359 28.5706 24.1101 28.3952 24.6508 28.2719C25.2008 28.1486 25.7936 28.087 26.4288 28.087ZM26.4288 29.353C25.6038 29.353 24.9352 29.4762 24.4231 29.7228C23.9111 29.9693 23.6551 30.3107 23.6551 30.747C23.6551 31.1927 23.9111 31.5436 24.4231 31.7995C24.9447 32.0651 25.6132 32.1979 26.4288 32.1979C27.2633 32.1979 27.9319 32.0651 28.4345 31.7995C28.9465 31.5341 29.2025 31.1832 29.2025 30.747C29.2025 30.3012 28.9513 29.9598 28.4487 29.7228C27.9461 29.4762 27.2728 29.353 26.4288 29.353ZM30.5539 20.4908V23.2078H32.1897V24.5592H30.5539V28.1581H28.9324V20.4909L30.5539 20.4908Z" fill="white"/>
</g>
<defs>
<clipPath id="clip0_8_799">
<rect width="40" height="40" fill="white"/>
</clipPath>
</defs>
</svg>
