<svg width="40" height="40" viewBox="0 0 40 40" fill="none" xmlns="http://www.w3.org/2000/svg">
<g clip-path="url(#clip0_8_856)">
<path opacity="0.993" d="M20.0006 39.9729C31.0315 39.9729 39.9739 31.0306 39.9739 19.9996C39.9739 8.9687 31.0315 0.0263672 20.0006 0.0263672C8.96968 0.0263672 0.0273438 8.9687 0.0273438 19.9996C0.0273438 31.0306 8.96968 39.9729 20.0006 39.9729Z" fill="#CD7C2F"/>
<path d="M26.1354 7.83691C25.5907 7.83691 24.8646 7.83691 23.8844 7.94576C20.5077 8.20005 17.6394 9.36188 15.4973 11.4314C13.0283 13.755 11.3945 17.4221 11.3945 21.9606C11.3945 27.8061 14.5533 32.163 20.2899 32.163C25.3003 32.163 28.6044 28.2418 28.6044 23.7397C28.6044 18.9471 25.4456 16.0424 21.3791 16.0424C19.0192 16.0424 17.2399 16.9864 16.0781 18.3298H15.9693C16.5501 15.0622 18.9102 12.0487 23.8844 11.4677C24.7558 11.3588 25.4819 11.3225 26.1354 11.3588V7.83691ZM20.2536 28.8228C17.349 28.8228 15.8966 26.2812 15.824 23.1588C15.824 22.5415 15.9328 22.1058 16.1146 21.7427C16.8044 20.3267 18.2931 19.3102 19.963 19.3102C22.5772 19.3102 24.0659 21.2344 24.0659 23.9938C24.0659 26.8259 22.5772 28.8228 20.2899 28.8228H20.2536Z" fill="white"/>
</g>
<defs>
<clipPath id="clip0_8_856">
<rect width="40" height="40" fill="white"/>
</clipPath>
</defs>
</svg>
