<svg width="40" height="40" viewBox="0 0 40 40" fill="none" xmlns="http://www.w3.org/2000/svg">
<g clip-path="url(#clip0_11_799)">
<path opacity="0.993" d="M39.9999 20C39.9999 22.6265 39.4826 25.2272 38.4775 27.6537C37.4724 30.0802 35.9992 32.285 34.142 34.1422C32.2849 35.9994 30.0801 37.4726 27.6536 38.4777C25.2271 39.4828 22.6263 40.0001 19.9999 40.0001C14.6956 40 9.60852 37.8929 5.85782 34.1421C2.10712 30.3914 -1.5195e-10 25.3043 0 20C-1.51944e-10 14.6957 2.10712 9.60866 5.85782 5.85793C9.60852 2.1072 14.6956 4.01498e-05 19.9999 5.72976e-10C22.6263 -1.98795e-05 25.2271 0.517282 27.6536 1.52237C30.0801 2.52746 32.285 4.00064 34.1421 5.85782C35.9993 7.715 37.4725 9.91979 38.4776 12.3463C39.4827 14.7728 39.9999 17.3736 39.9999 20Z" fill="#6789CA"/>
<path d="M10.7205 12.3318V14.4688C10.7205 14.9943 10.8139 15.5082 11.0007 16.0104C11.1992 16.5125 11.4679 16.9795 11.8065 17.4116C12.1452 17.8437 12.5481 18.2291 13.0152 18.5677C13.4823 18.9064 13.9961 19.1692 14.5567 19.356L13.2954 20.845C12.5365 20.4595 11.8242 19.9924 11.1585 19.4436C10.4928 18.8831 9.99645 18.3051 9.66947 17.7095C9.56441 18.0131 9.39511 18.3284 9.16157 18.6554C8.92794 18.9706 8.64763 19.2859 8.32064 19.6012C8.00536 19.9049 7.65506 20.2027 7.26973 20.4947C6.88431 20.7749 6.49309 21.026 6.09606 21.2478L4.53711 19.9165C5.82165 19.286 6.82007 18.5094 7.53238 17.5867C8.24479 16.6526 8.60685 15.625 8.61856 14.5038V12.3318H10.7205ZM18.1126 11.999V23.5249H16.1506V11.999H18.1126ZM8.09296 27.3787C7.90615 27.3787 7.77773 27.3437 7.70769 27.2736C7.64925 27.2035 7.62004 27.075 7.62004 26.8882V22.3164H9.61694V25.6971H18.4804V27.3787H8.09296ZM21.5808 15.765H26.6783V14.1537H21.0903V12.5248H28.132C28.3071 12.5248 28.4298 12.5656 28.4999 12.6472C28.5817 12.7173 28.6225 12.8399 28.6225 13.0151V16.7988C28.6225 16.9855 28.5817 17.1139 28.4999 17.1841C28.4298 17.2541 28.3071 17.2891 28.132 17.2891H23.0522V18.9708L26.5206 18.9357C26.8359 18.9357 27.1804 18.9241 27.5541 18.9007C27.9278 18.8773 28.3073 18.8481 28.6926 18.8131C29.0663 18.7781 29.4225 18.7372 29.7612 18.6905C30.0998 18.6321 30.3976 18.5738 30.6544 18.5153V20.0918C30.2341 20.197 29.6444 20.2905 28.8853 20.3722C28.138 20.4422 27.3205 20.4948 26.4329 20.5298C26.001 20.5531 25.5105 20.5706 24.9615 20.5823C24.4127 20.594 23.8931 20.5999 23.4027 20.5999H21.5808C21.3939 20.5999 21.2654 20.5649 21.1954 20.4948C21.1253 20.4247 21.0903 20.2962 21.0903 20.1094V16.2555C21.0903 16.0803 21.1253 15.9577 21.1954 15.8876C21.2654 15.8059 21.3939 15.765 21.5808 15.765ZM33.2821 11.999V21.1953H31.2852V11.999H33.2821ZM31.3026 25.8898V23.4724H24.6287V25.8898H31.3026ZM23.1574 21.8433H32.7915C32.9667 21.8433 33.0893 21.8842 33.1593 21.966C33.2411 22.0361 33.282 22.1587 33.282 22.3338V27.0108C33.282 27.1976 33.2411 27.3261 33.1593 27.3962C33.0893 27.4663 32.9667 27.5013 32.7915 27.5013H23.1574C22.9705 27.5013 22.8421 27.4663 22.772 27.3962C22.702 27.3261 22.667 27.1976 22.667 27.0108V22.3338C22.667 22.1587 22.702 22.0361 22.772 21.966C22.8421 21.8842 22.9705 21.8433 23.1574 21.8433Z" fill="white"/>
</g>
<defs>
<clipPath id="clip0_11_799">
<rect width="40" height="40" fill="white"/>
</clipPath>
</defs>
</svg>
