<svg width="40" height="40" viewBox="0 0 40 40" fill="none" xmlns="http://www.w3.org/2000/svg">
<g clip-path="url(#clip0_8_814)">
<path d="M20 40C31.0457 40 40 31.0457 40 20C40 8.95431 31.0457 0 20 0C8.95431 0 0 8.95431 0 20C0 31.0457 8.95431 40 20 40Z" fill="#FE5B10"/>
<path d="M12 30.773L13.0756 27.1552C14.7467 28.1863 16.5689 28.7107 18.5422 28.7107C19.8933 28.7107 20.9956 28.3996 21.8311 27.7863C22.8444 27.093 23.3422 26.1507 23.3422 24.9419C23.3422 23.6352 22.7733 22.6307 21.6444 21.9107C20.6133 21.2707 19.3422 20.9507 17.84 20.9507H15.8044V17.4396H17.7956C19.0489 17.4396 20.1333 17.173 21.0489 16.6307C22.0622 16.0619 22.56 15.253 22.56 14.1952C22.56 13.2796 22.1778 12.5596 21.4133 12.0174C20.7467 11.5463 19.8844 11.3152 18.8267 11.3152C17.1556 11.3152 15.5022 11.8485 13.8756 12.9063L12.8 9.43074C14.5956 8.15074 16.8889 7.51074 19.6711 7.51074C21.6622 7.51074 23.3511 7.95519 24.7289 8.84408C26.3289 9.98185 27.1289 11.5285 27.1289 13.5019C27.1289 16.3107 25.8933 18.1419 23.4311 19.0041C24.4178 19.2263 25.4222 19.893 26.4444 21.0219C27.4667 22.1419 27.9733 23.5196 27.9733 25.1374C27.9733 27.573 26.9778 29.4752 24.9778 30.8263C23.28 31.9552 21.1822 32.5241 18.6933 32.5241C15.9378 32.5063 13.6978 31.9285 12 30.773Z" fill="white"/>
</g>
<defs>
<clipPath id="clip0_8_814">
<rect width="40" height="40" fill="white"/>
</clipPath>
</defs>
</svg>
