<svg width="40" height="40" viewBox="0 0 40 40" fill="none" xmlns="http://www.w3.org/2000/svg">
<path opacity="0.993" d="M20 40C31.0457 40 40 31.0457 40 20C40 8.9543 31.0457 0 20 0C8.9543 0 0 8.9543 0 20C0 31.0457 8.9543 40 20 40Z" fill="#56AB2D"/>
<path d="M11.9866 21.9443C13.8668 21.9443 15.3032 22.2245 16.2957 22.7851C17.2999 23.3339 17.802 24.0637 17.802 24.9747C17.802 25.8971 17.3058 26.6328 16.3133 27.1818C15.3206 27.7307 13.8784 28.0051 11.9866 28.0051C10.0831 28.0051 8.63506 27.7306 7.64249 27.1817C6.66152 26.6329 6.17104 25.8971 6.17104 24.9745C6.17104 24.0637 6.66733 23.3339 7.6599 22.7851C8.65257 22.2245 10.0949 21.9443 11.9866 21.9443ZM11.9866 23.4505C10.8771 23.4505 10.0013 23.579 9.35903 23.836C8.71676 24.0929 8.39562 24.4666 8.39562 24.9571C8.39562 25.4826 8.71676 25.8621 9.35903 26.0957C10.0013 26.3409 10.8771 26.4635 11.9866 26.4635C13.0843 26.4635 13.9543 26.3409 14.5964 26.0957C15.2504 25.8621 15.5774 25.4826 15.5774 24.9571C15.5774 24.4666 15.2504 24.0929 14.5964 23.836C13.9543 23.5791 13.0843 23.4507 11.9866 23.4507V23.4505ZM19.2211 21.0508H4.76953V19.3868H8.50053V17.3548C7.76481 17.1095 7.20428 16.7767 6.81896 16.3564C6.43364 15.936 6.24098 15.4455 6.24098 14.885C6.24098 14.0092 6.74897 13.2968 7.76496 12.7479C8.79265 12.1992 10.1999 11.9248 11.9866 11.9248C13.7733 11.9248 15.1746 12.1992 16.1905 12.748C17.2182 13.2969 17.732 14.0093 17.732 14.8851C17.732 15.4339 17.5394 15.9186 17.1541 16.339C16.7686 16.7594 16.2256 17.0923 15.525 17.3375V19.387H19.2211V21.0508ZM10.4449 17.7752V19.3868H13.5805V17.7752C13.3353 17.8103 13.0783 17.8337 12.8097 17.8453C12.5411 17.857 12.2667 17.8628 11.9864 17.8628C11.7062 17.8628 11.4376 17.857 11.1806 17.8453C10.9238 17.8337 10.6785 17.8103 10.4449 17.7752ZM11.9864 13.3785C10.912 13.3785 10.042 13.5187 9.37643 13.7989C8.72246 14.0675 8.39547 14.4412 8.39547 14.9199C8.39547 15.3754 8.72831 15.7316 9.39399 15.9885C10.0596 16.2454 10.9237 16.3738 11.9864 16.3738C13.0374 16.3738 13.8958 16.2454 14.5615 15.9885C15.2387 15.7316 15.5773 15.3754 15.5773 14.9199C15.5773 14.4412 15.2445 14.0675 14.5789 13.7989C13.9133 13.5187 13.0491 13.3785 11.9864 13.3785ZM24.7387 20.5954C24.0847 20.5954 23.495 20.4845 22.9696 20.2626C22.4557 20.0407 22.0178 19.7371 21.6558 19.3517C21.2937 18.9781 21.0193 18.5402 20.8325 18.038C20.6457 17.5242 20.5523 16.9812 20.5523 16.4089C20.5523 15.8367 20.6457 15.2995 20.8324 14.7975C21.0193 14.2953 21.2938 13.8515 21.6559 13.466C22.0178 13.0924 22.4557 12.7947 22.9696 12.5729C23.4833 12.3508 24.073 12.2398 24.7387 12.2398C25.3927 12.2398 25.9766 12.3508 26.4905 12.5729C27.016 12.7947 27.4539 13.0924 27.8042 13.466C28.1662 13.8515 28.4406 14.2953 28.6274 14.7975C28.8259 15.2995 28.9252 15.8367 28.9252 16.4089C28.9252 16.9812 28.8259 17.5242 28.6274 18.038C28.4406 18.5402 28.1662 18.9781 27.8042 19.3517C27.4422 19.7371 26.9984 20.0407 26.4729 20.2626C25.9591 20.4845 25.3811 20.5954 24.7387 20.5954ZM24.7387 13.9216C24.0264 13.9216 23.4776 14.1609 23.0922 14.6397C22.7185 15.1185 22.5317 15.7082 22.5317 16.4089C22.5317 17.0979 22.7243 17.6877 23.1096 18.1782C23.4951 18.6686 24.0381 18.9139 24.7387 18.9139C25.4394 18.9139 25.9825 18.6686 26.3679 18.1782C26.7532 17.6877 26.9459 17.0979 26.9459 16.4089C26.9459 15.7082 26.7532 15.1185 26.3679 14.6397C25.9825 14.1609 25.4394 13.9216 24.7387 13.9216ZM33.322 12.0297V23.5909H31.36V12.0297H33.322ZM23.2498 27.4094C23.063 27.4094 22.9345 27.3743 22.8644 27.3043C22.8061 27.2343 22.7769 27.1058 22.7769 26.919V22.1544H24.7737V25.7278H33.6898V27.4094H23.2498Z" fill="white"/>
</svg>
