<svg width="40" height="40" viewBox="0 0 40 40" fill="none" xmlns="http://www.w3.org/2000/svg">
<g clip-path="url(#clip0_8_802)">
<path opacity="0.993" d="M20.0006 39.9729C31.0315 39.9729 39.9739 31.0306 39.9739 19.9996C39.9739 8.9687 31.0315 0.0263672 20.0006 0.0263672C8.96968 0.0263672 0.0273438 8.9687 0.0273438 19.9996C0.0273438 31.0306 8.96968 39.9729 20.0006 39.9729Z" fill="#D4003B"/>
<path d="M6.96125 14.1542V15.7905C6.96125 16.1929 7.03281 16.5863 7.17593 16.9708C7.32792 17.3553 7.53357 17.713 7.7929 18.0439C8.05223 18.3748 8.36074 18.6699 8.71843 18.9292C9.07613 19.1884 9.46955 19.3896 9.8987 19.5327L8.93296 20.6728C8.35182 20.3777 7.80635 20.02 7.29657 19.5998C6.78689 19.1706 6.40692 18.7279 6.15667 18.2719C6.07604 18.5044 5.94632 18.7458 5.76753 18.9962C5.58873 19.2377 5.37415 19.4791 5.1238 19.7205C4.88231 19.953 4.61406 20.181 4.31906 20.4046C4.02395 20.6192 3.72436 20.8114 3.42029 20.9813L2.22656 19.9619C3.21025 19.4792 3.97477 18.8845 4.52013 18.178C5.06559 17.4627 5.34281 16.6759 5.35178 15.8174V14.1542H6.96125ZM12.6215 13.8994V22.7249H11.1193V13.8994H12.6215ZM4.94933 25.6758C4.80622 25.6758 4.7079 25.649 4.65438 25.5952C4.60963 25.5416 4.58726 25.4433 4.58726 25.3003V21.7995H6.1163V24.3882H12.9031V25.6758H4.94933ZM22.319 17.6951V16.5014H16.9404V17.6951H22.319ZM15.4381 18.567V13.9934H16.9404V15.2676H22.319V13.9934H23.8346V18.5671C23.8346 18.7102 23.8033 18.8086 23.7408 18.8622C23.6871 18.9159 23.5932 18.9427 23.459 18.9427H15.8002C15.6572 18.9427 15.5589 18.9159 15.5054 18.8622C15.4606 18.8086 15.4381 18.7102 15.4381 18.5671V18.567ZM25.1759 21.196H20.6022V23.5163H19.0461V21.1957H14.1103V19.9216H25.1759V21.196ZM15.854 25.6758C15.7109 25.6758 15.6125 25.649 15.5589 25.5952C15.5142 25.5416 15.4918 25.4433 15.4918 25.3003V22.0408H17.0208V24.3882H24.1968V25.6758H15.854ZM31.5604 21.0618C32.1684 21.0618 32.7318 21.1199 33.2504 21.2361C33.769 21.3524 34.2205 21.5178 34.605 21.7324C34.9807 21.9471 35.2758 22.2109 35.4903 22.5238C35.705 22.8368 35.8124 23.1944 35.8124 23.5968C35.8124 24.0081 35.705 24.3702 35.4903 24.6832C35.2757 24.9962 34.9806 25.26 34.605 25.4746C34.2205 25.6893 33.769 25.8502 33.2504 25.9575C32.7318 26.0647 32.1639 26.1183 31.5469 26.1183C30.93 26.1183 30.3622 26.0647 29.8436 25.9575C29.3339 25.8501 28.8912 25.6892 28.5156 25.4746C28.1401 25.2599 27.845 24.9961 27.6304 24.6832C27.4248 24.3702 27.322 24.0081 27.322 23.5968C27.322 23.2033 27.4293 22.8501 27.6439 22.5371C27.8585 22.2242 28.158 21.956 28.5425 21.7324C28.927 21.5177 29.3741 21.3523 29.8838 21.2361C30.4024 21.1199 30.9613 21.0618 31.5604 21.0618ZM31.5604 22.2555C30.7824 22.2555 30.152 22.3718 29.6691 22.6043C29.1863 22.8368 28.945 23.1587 28.945 23.57C28.945 23.9903 29.1863 24.3211 29.6691 24.5625C30.1609 24.8129 30.7914 24.9381 31.5604 24.9381C32.3472 24.9381 32.9777 24.8129 33.4517 24.5625C33.9344 24.3122 34.1758 23.9813 34.1758 23.57C34.1758 23.1497 33.9389 22.8278 33.465 22.6043C32.9911 22.3718 32.3562 22.2555 31.5604 22.2555ZM26.8927 19.8009C26.7495 19.8009 26.6512 19.7741 26.5976 19.7205C26.5529 19.6669 26.5306 19.5685 26.5306 19.4254V14.7578C26.5306 14.6237 26.5574 14.5298 26.611 14.4762C26.6647 14.4135 26.7631 14.3821 26.9061 14.3821H32.2443V15.6564H28.0329V18.5133L29.6959 18.5C29.9463 18.5 30.2459 18.491 30.5946 18.4731C30.9434 18.4463 31.3011 18.415 31.6677 18.3794C32.0433 18.3435 32.4009 18.3032 32.7407 18.2584C33.0805 18.2048 33.3711 18.1512 33.6125 18.0976V19.3315C33.4158 19.3763 33.152 19.4254 32.8212 19.4791C32.4903 19.5327 32.1237 19.5819 31.7214 19.6266C31.3189 19.6714 30.8987 19.7116 30.4605 19.7474C30.0224 19.7742 29.5976 19.7876 29.1862 19.7876C29.088 19.7876 28.9136 19.792 28.6631 19.8009H26.8927ZM34.0417 20.9679V13.8994H35.5573V16.2064H37.1266V17.4806H35.5573V20.9679H34.0417Z" fill="white"/>
</g>
<defs>
<clipPath id="clip0_8_802">
<rect width="40" height="40" fill="white"/>
</clipPath>
</defs>
</svg>
